<?xml version="1.0" encoding="iso-8859-1"?>
<!-- Uploaded to: SVG Repo, www.svgrepo.com, Generator: SVG Repo Mixer Tools -->
<svg fill="#000000" height="800px" width="800px" version="1.1" id="Layer_1" xmlns="http://www.w3.org/2000/svg" xmlns:xlink="http://www.w3.org/1999/xlink" 
	 viewBox="0 0 512 512" xml:space="preserve">
<g>
	<g>
		<path d="M316.488,417.365h-0.893l-22.432-93.553c79.093-17.1,138.538-87.203,138.538-171.336c0-10.051-8.148-17.804-18.199-17.804
			h-52.948c-0.749-2.427-1.912-4.479-3.517-6.308l-82.837-94.591V18.199C274.199,8.148,266.051,0,256,0s-18.199,8.148-18.199,18.199
			v15.575l-82.837,94.591c-1.605,1.828-2.769,3.881-3.517,6.308H98.498c-10.051,0-18.199,7.897-18.199,17.948
			c0,84.133,59.445,154.215,138.537,171.315l-22.432,93.429h-0.893c-35.556,0-64.478,29.509-64.478,65.065v10.779
			c0,10.051,8.142,18.791,18.193,18.791h213.548c10.051,0,18.193-8.74,18.193-18.791V482.43
			C380.967,446.874,352.045,417.365,316.488,417.365z M274.199,88.939l39.718,45.734h-39.718V88.939z M237.801,88.939v45.734
			h-39.718L237.801,88.939z M117.88,171.071h276.24c-8.941,67.943-67.472,121.103-138.12,121.103S126.821,239.014,117.88,171.071z
			 M278.172,417.365h-44.345l21.486-89.594c0.229,0.001,0.457,0.154,0.687,0.154s0.457-0.226,0.687-0.227L278.172,417.365z
			 M168.42,475.602c3.262-12.133,14.172-21.839,27.092-21.839h120.976c12.919,0,23.83,9.706,27.091,21.839H168.42z"/>
	</g>
</g>
</svg>